<mxfile host="app.diagrams.net" modified="2024-02-08T07:13:46.895Z" agent="Mozilla/5.0 (Windows NT 10.0; Win64; x64) AppleWebKit/537.36 (KHTML, like Gecko) Chrome/121.0.0.0 Safari/537.36" etag="ZBGPHEyA4A9IucM_HmvT" version="23.1.1" type="device">
  <diagram name="Страница — 1" id="yThX2tii3GCXO9OGAQvs">
    <mxGraphModel dx="880" dy="468" grid="0" gridSize="10" guides="1" tooltips="1" connect="1" arrows="1" fold="1" page="1" pageScale="1" pageWidth="827" pageHeight="1169" math="0" shadow="0">
      <root>
        <mxCell id="0" />
        <mxCell id="1" parent="0" />
        <mxCell id="ITiako0a-24e-aBwkIe2-1" value="Пользователь" style="shape=umlActor;verticalLabelPosition=bottom;verticalAlign=top;html=1;outlineConnect=0;" parent="1" vertex="1">
          <mxGeometry x="30" y="190" width="50" height="80" as="geometry" />
        </mxCell>
        <mxCell id="ITiako0a-24e-aBwkIe2-2" value="Frontend&lt;br&gt;&lt;br&gt;HTML&lt;br&gt;CSS&lt;br&gt;JavaScript" style="rounded=0;whiteSpace=wrap;html=1;" parent="1" vertex="1">
          <mxGeometry x="210" y="180" width="100" height="120" as="geometry" />
        </mxCell>
        <mxCell id="ITiako0a-24e-aBwkIe2-3" value="Backend&lt;br&gt;&lt;br&gt;Python&lt;br&gt;Django" style="rounded=0;whiteSpace=wrap;html=1;" parent="1" vertex="1">
          <mxGeometry x="414" y="180" width="100" height="120" as="geometry" />
        </mxCell>
        <mxCell id="ITiako0a-24e-aBwkIe2-5" value="" style="endArrow=classic;html=1;rounded=0;entryX=-0.01;entryY=0.167;entryDx=0;entryDy=0;entryPerimeter=0;" parent="1" target="ITiako0a-24e-aBwkIe2-2" edge="1">
          <mxGeometry width="50" height="50" relative="1" as="geometry">
            <mxPoint x="110" y="200" as="sourcePoint" />
            <mxPoint x="190" y="180" as="targetPoint" />
          </mxGeometry>
        </mxCell>
        <mxCell id="ITiako0a-24e-aBwkIe2-6" value="Запрос&lt;br&gt;пользователя" style="text;html=1;strokeColor=none;fillColor=none;align=center;verticalAlign=middle;whiteSpace=wrap;rounded=0;" parent="1" vertex="1">
          <mxGeometry x="130" y="160" width="60" height="30" as="geometry" />
        </mxCell>
        <mxCell id="ITiako0a-24e-aBwkIe2-7" value="" style="endArrow=classic;html=1;rounded=0;entryX=-0.01;entryY=0.167;entryDx=0;entryDy=0;entryPerimeter=0;exitX=1;exitY=0.158;exitDx=0;exitDy=0;exitPerimeter=0;" parent="1" edge="1" source="ITiako0a-24e-aBwkIe2-2">
          <mxGeometry width="50" height="50" relative="1" as="geometry">
            <mxPoint x="320" y="199" as="sourcePoint" />
            <mxPoint x="409" y="199" as="targetPoint" />
          </mxGeometry>
        </mxCell>
        <mxCell id="ITiako0a-24e-aBwkIe2-8" value="Запрос&lt;br&gt;на обработку информации" style="text;html=1;strokeColor=none;fillColor=none;align=center;verticalAlign=middle;whiteSpace=wrap;rounded=0;" parent="1" vertex="1">
          <mxGeometry x="320" y="150" width="90" height="30" as="geometry" />
        </mxCell>
        <mxCell id="ITiako0a-24e-aBwkIe2-9" value="" style="shape=cylinder3;whiteSpace=wrap;html=1;boundedLbl=1;backgroundOutline=1;size=15;" parent="1" vertex="1">
          <mxGeometry x="630" y="180" width="100" height="120" as="geometry" />
        </mxCell>
        <mxCell id="ITiako0a-24e-aBwkIe2-10" value="База данных&lt;br&gt;&lt;br&gt;Sqlite3" style="text;html=1;strokeColor=none;fillColor=none;align=center;verticalAlign=middle;whiteSpace=wrap;rounded=0;" parent="1" vertex="1">
          <mxGeometry x="640" y="240" width="80" height="30" as="geometry" />
        </mxCell>
        <mxCell id="ITiako0a-24e-aBwkIe2-12" value="" style="endArrow=classic;html=1;rounded=0;exitX=0.984;exitY=0.114;exitDx=0;exitDy=0;exitPerimeter=0;entryX=0;entryY=0;entryDx=0;entryDy=15;entryPerimeter=0;" parent="1" edge="1" target="ITiako0a-24e-aBwkIe2-9" source="ITiako0a-24e-aBwkIe2-3">
          <mxGeometry width="50" height="50" relative="1" as="geometry">
            <mxPoint x="530" y="199.5" as="sourcePoint" />
            <mxPoint x="630" y="200" as="targetPoint" />
          </mxGeometry>
        </mxCell>
        <mxCell id="ITiako0a-24e-aBwkIe2-13" value="Запрос&lt;br&gt;в базу данных" style="text;html=1;strokeColor=none;fillColor=none;align=center;verticalAlign=middle;whiteSpace=wrap;rounded=0;" parent="1" vertex="1">
          <mxGeometry x="530" y="160" width="90" height="30" as="geometry" />
        </mxCell>
        <mxCell id="Jv57SZBQJBqYLkM7HUb3-1" value="" style="endArrow=classic;html=1;rounded=0;exitX=-0.009;exitY=0.82;exitDx=0;exitDy=0;exitPerimeter=0;entryX=0.994;entryY=0.808;entryDx=0;entryDy=0;entryPerimeter=0;" edge="1" parent="1" source="ITiako0a-24e-aBwkIe2-9" target="ITiako0a-24e-aBwkIe2-3">
          <mxGeometry width="50" height="50" relative="1" as="geometry">
            <mxPoint x="630" y="280" as="sourcePoint" />
            <mxPoint x="530" y="280" as="targetPoint" />
          </mxGeometry>
        </mxCell>
        <mxCell id="Jv57SZBQJBqYLkM7HUb3-2" value="Ответ из базы данных" style="text;html=1;strokeColor=none;fillColor=none;align=center;verticalAlign=middle;whiteSpace=wrap;rounded=0;" vertex="1" parent="1">
          <mxGeometry x="530" y="290" width="90" height="30" as="geometry" />
        </mxCell>
        <mxCell id="Jv57SZBQJBqYLkM7HUb3-3" value="" style="endArrow=classic;html=1;rounded=0;exitX=0;exitY=0.85;exitDx=0;exitDy=0;exitPerimeter=0;entryX=1;entryY=0.842;entryDx=0;entryDy=0;entryPerimeter=0;" edge="1" parent="1" source="ITiako0a-24e-aBwkIe2-3" target="ITiako0a-24e-aBwkIe2-2">
          <mxGeometry width="50" height="50" relative="1" as="geometry">
            <mxPoint x="414" y="280" as="sourcePoint" />
            <mxPoint x="314" y="280" as="targetPoint" />
          </mxGeometry>
        </mxCell>
        <mxCell id="Jv57SZBQJBqYLkM7HUb3-4" value="Обработанный запрос" style="text;html=1;strokeColor=none;fillColor=none;align=center;verticalAlign=middle;whiteSpace=wrap;rounded=0;" vertex="1" parent="1">
          <mxGeometry x="320" y="290" width="90" height="30" as="geometry" />
        </mxCell>
        <mxCell id="Jv57SZBQJBqYLkM7HUb3-5" value="Информация для пользователя" style="text;html=1;strokeColor=none;fillColor=none;align=center;verticalAlign=middle;whiteSpace=wrap;rounded=0;" vertex="1" parent="1">
          <mxGeometry x="110" y="300" width="90" height="30" as="geometry" />
        </mxCell>
        <mxCell id="Jv57SZBQJBqYLkM7HUb3-7" value="" style="endArrow=classic;html=1;rounded=0;" edge="1" parent="1">
          <mxGeometry width="50" height="50" relative="1" as="geometry">
            <mxPoint x="205" y="280" as="sourcePoint" />
            <mxPoint x="105" y="280" as="targetPoint" />
          </mxGeometry>
        </mxCell>
      </root>
    </mxGraphModel>
  </diagram>
</mxfile>
